Coordinates
version=1
nRows=16
nColumns=40
inDegrees=yes

Units are S.I. units (second, meters, Newtons, ...)
Angles are in degrees.

endheader
time	pelvis_tilt	pelvis_list	pelvis_rotation	pelvis_tx	pelvis_ty	pelvis_tz	hip_flexion_r	hip_adduction_r	hip_rotation_r	knee_angle_r	knee_angle_r_beta	ankle_angle_r	subtalar_angle_r	mtp_angle_r	hip_flexion_l	hip_adduction_l	hip_rotation_l	knee_angle_l	knee_angle_l_beta	ankle_angle_l	subtalar_angle_l	mtp_angle_l	lumbar_extension	lumbar_bending	lumbar_rotation	arm_flex_r	arm_add_r	arm_rot_r	elbow_flex_r	pro_sup_r	wrist_flex_r	wrist_dev_r	arm_flex_l	arm_add_l	arm_rot_l	elbow_flex_l	pro_sup_l	wrist_flex_l	wrist_dev_l
     37.40000000	     -2.98268651	     -5.24751205	      4.47323163	      0.90194576	      0.92961898	      0.49253558	     13.29916990	      3.77114671	    -13.51455820	     17.81346896	     17.81346896	      9.61545925	     -2.10543077	     -4.78501353	     30.08742539	    -10.79577141	      4.13301620	     65.40091304	     65.40091304	      5.64194507	    -17.65450397	      9.62103327	     -9.51615667	      5.89147521	      1.04589036	     14.80481028	    -19.98415369	     -0.21390092	     61.19976299	     42.85966300	      0.00000000	      0.00000000	      2.69308514	     -9.92615750	    -10.35976088	     41.83689393	     43.07001863	      0.00000000	      0.00000000
     37.41314286	     -3.22556790	     -5.10034551	      4.79395168	      0.90022234	      0.92989679	      0.49298608	     13.00413147	      3.68654133	    -13.62053909	     17.47750975	     17.47750975	      9.78533545	     -2.21362550	     -4.78182314	     31.45854317	    -10.67937507	      3.60759452	     62.94845873	     62.94845873	      6.25271809	    -17.97842586	      9.77243009	     -9.47577166	      5.69566073	      1.39507354	     16.46403585	    -20.18443914	     -0.38964582	     62.04419753	     42.85952520	      0.00000000	      0.00000000	      2.26255355	     -9.71934803	    -10.31267592	     41.42153828	     43.07839861	      0.00000000	      0.00000000
     37.42628571	     -3.31831294	     -4.97062588	      5.20869436	      0.89864415	      0.93046031	      0.49331348	     12.44998128	      3.65230532	    -13.79218539	     16.96142098	     16.96142098	      9.87057149	     -2.32012040	     -4.75625609	     32.39036554	    -10.41853767	      3.24964454	     60.03791427	     60.03791427	      6.80168961	    -18.31345118	     10.10835622	     -9.61459662	      5.57581389	      1.04251678	     18.25203613	    -19.91765744	     -0.27352641	     63.81928784	     42.85293543	      0.00000000	      0.00000000	      1.74821940	     -9.75773789	    -10.40504350	     40.16899280	     43.14880748	      0.00000000	      0.00000000
     37.43942857	     -3.55855789	     -4.80109451	      5.53431356	      0.89699517	      0.93065505	      0.49359447	     12.16621441	      3.53571590	    -13.88399051	     16.65124100	     16.65124100	     10.05212748	     -2.44237619	     -4.73977844	     33.26969114	    -10.09963943	      2.77532940	     56.86177263	     56.86177263	      7.36027996	    -18.35116864	     10.39201570	     -9.57713336	      5.36670589	      1.38716339	     19.81970649	    -20.17683979	     -0.39015370	     64.74140947	     42.84989736	      0.00000000	      0.00000000	      1.36937307	     -9.55710735	    -10.40494769	     39.72617996	     43.16563577	      0.00000000	      0.00000000
     37.45257143	     -3.65637826	     -4.57974118	      5.88974025	      0.89551239	      0.93110273	      0.49369004	     11.68172754	      3.37434833	    -14.00056758	     16.28089084	     16.28089084	     10.22755882	     -2.53154704	     -4.68993591	     33.70870581	     -9.58915912	      2.44904012	     53.29433810	     53.29433810	      7.84317497	    -18.34308312	     10.75032385	     -9.71437846	      5.15236204	      1.34550204	     21.37947755	    -20.06322769	     -0.35269468	     66.12639842	     42.83464405	      0.00000000	      0.00000000	      0.95251093	     -9.55145301	    -10.46841195	     38.90890016	     43.20170749	      0.00000000	      0.00000000
     37.46571429	     -3.81797700	     -4.42446682	      6.24043123	      0.89402017	      0.93131545	      0.49366029	     11.33113044	      3.24838109	    -14.17663024	     16.01712941	     16.01712941	     10.40939159	     -2.58891469	     -4.66466466	     34.06874535	     -9.05572237	      2.27427428	     49.52303659	     49.52303659	      8.27690674	    -18.06978653	     10.96464492	     -9.75917030	      5.00801966	      1.36242098	     22.88104523	    -20.07304094	     -0.29407363	     67.47760645	     42.82250702	      0.00000000	      0.00000000	      0.60386253	     -9.45180602	    -10.55946289	     38.09538007	     43.24472784	      0.00000000	      0.00000000
     37.47885714	     -4.02395234	     -4.30932471	      6.58352885	      0.89254559	      0.93131451	      0.49343250	     11.07549809	      3.10566760	    -14.53535190	     15.85188624	     15.85188624	     10.69471280	     -2.39601822	     -4.59308026	     34.27158534	     -8.50443986	      2.21465128	     45.46878504	     45.46878504	      8.24813472	    -17.58909423	      9.86361624	     -9.76066163	      4.94530965	      1.52768348	     23.91192161	    -20.46745972	      0.27268685	     69.60037027	     42.86684115	      0.00000000	      0.00000000	      0.80865563	     -9.13871270	    -11.25227744	     36.23236185	     43.48756887	      0.00000000	      0.00000000
     37.49200000	     -4.21034163	     -4.15617856	      6.89809210	      0.89118073	      0.93118837	      0.49319971	     10.83068109	      2.96493743	    -14.58994621	     15.74717375	     15.74717375	     10.96424880	     -2.56865608	     -4.61455337	     34.34146107	     -7.89886787	      2.24359969	     41.41549792	     41.41549792	      8.74156515	    -16.54941481	      9.91996469	     -9.72525150	      4.77866966	      1.72804875	     25.36223759	    -20.48259038	      0.10214468	     70.46890896	     42.87265251	      0.00000000	      0.00000000	      0.44986296	     -9.02056436	    -11.30418029	     35.90571668	     43.51506129	      0.00000000	      0.00000000
     37.50514286	     -4.36128405	     -4.02473108	      7.19979414	      0.88989077	      0.93104449	      0.49284485	     10.56627120	      2.82763430	    -14.72490090	     15.69361719	     15.69361719	     11.25510561	     -2.66606580	     -4.64982033	     34.20233828	     -7.30966861	      2.37121807	     37.23752549	     37.23752549	      9.14403230	    -15.18118708	      9.73314255	     -9.73988889	      4.64123822	      1.70390661	     26.68746821	    -20.25844091	      0.06673553	     71.53728652	     42.86852506	      0.00000000	      0.00000000	      0.08203543	     -8.97074919	    -11.39413488	     35.41914071	     43.55056977	      0.00000000	      0.00000000
     37.51828571	     -4.47997231	     -3.97544386	      7.48685183	      0.88877323	      0.93072475	      0.49238972	     10.29768549	      2.74787521	    -14.98564610	     15.72708812	     15.72708812	     11.75285187	     -2.48949861	     -4.31926731	     33.81418717	     -6.86540640	      2.46587145	     32.81524122	     32.81524122	      8.19171959	    -13.85537084	      6.18655332	     -9.76801068	      4.63082887	      1.77155906	     27.74143920	    -20.32480126	      0.44621803	     73.25705758	     43.03832620	      0.00000000	      0.00000000	      0.11901194	     -8.68610851	    -12.47758441	     34.19963749	     43.94016503	      0.00000000	      0.00000000
     37.53142857	     -4.63308598	     -3.91996308	      7.72873954	      0.88775293	      0.93027479	      0.49197006	     10.07521253	      2.69228055	    -15.06477325	     15.76611415	     15.76611415	     12.08727768	     -2.67782039	     -4.42953963	     33.54616024	     -6.43371622	      2.62070319	     28.95442992	     28.95442992	      8.66708257	    -11.89778722	      6.45871090	     -9.69159978	      4.51843439	      1.81322245	     28.92203421	    -20.04579647	      0.40063573	     74.05058404	     43.04140266	      0.00000000	      0.00000000	     -0.22541711	     -8.61472985	    -12.50217838	     33.95793139	     43.96216098	      0.00000000	      0.00000000
     37.54457143	     -4.74452831	     -3.84574849	      7.93925377	      0.88679156	      0.92977973	      0.49142730	      9.80261143	      2.61183793	    -15.08437048	     15.81532395	     15.81532395	     12.44897872	     -2.80136221	     -4.52963640	     33.21620398	     -6.05365853	      2.63603199	     25.43964261	     25.43964261	      9.04363347	     -9.85892704	      6.77006207	     -9.68980782	      4.45244172	      1.79129641	     29.99992483	    -19.66508679	      0.47770959	     74.94082995	     43.03565135	      0.00000000	      0.00000000	     -0.56788713	     -8.60264177	    -12.54078426	     33.67211383	     43.98529108	      0.00000000	      0.00000000
     37.55771429	     -4.86539326	     -3.87685685	      8.13377235	      0.88598748	      0.92909614	      0.49088135	      9.55507216	      2.64666904	    -15.13452946	     15.88285603	     15.88285603	     12.82523504	     -2.93114121	     -4.62754273	     32.98462580	     -5.80904516	      2.64854473	     22.50581653	     22.50581653	      9.32099392	     -8.10245783	      7.12669743	     -9.61994176	      4.46789185	      1.81594575	     31.00730663	    -19.33270559	      0.58571829	     75.76930537	     43.02561185	      0.00000000	      0.00000000	     -0.84909111	     -8.53174177	    -12.56582749	     33.43258958	     44.00215341	      0.00000000	      0.00000000
     37.57085714	     -4.86597907	     -3.82747249	      8.25637031	      0.88542282	      0.92859746	      0.49039414	      9.14200577	      2.62961562	    -15.10670998	     15.93650569	     15.93650569	     13.25682452	     -3.01783571	     -4.67105301	     32.62854724	     -5.59988705	      2.37502577	     20.14828604	     20.14828604	      9.49914335	     -6.53027066	      7.51981812	     -9.66651609	      4.37012351	      1.72216527	     31.88749215	    -18.81171173	      0.86340405	     76.77486941	     43.01308978	      0.00000000	      0.00000000	     -1.15707516	     -8.58476236	    -12.63495696	     33.13658834	     44.03398523	      0.00000000	      0.00000000
     37.58400000	     -4.90604680	     -3.84975360	      8.36738675	      0.88492804	      0.92792056	      0.48980993	      8.75356597	      2.68421489	    -15.06717918	     15.95786494	     15.95786494	     13.71592317	     -3.07148872	     -4.64250284	     32.47345750	     -5.46814505	      2.09516648	     18.59124515	     18.59124515	      9.60830479	     -5.42254855	      7.85330201	     -9.67198052	      4.35469238	      1.67975798	     32.65526917	    -18.34891698	      1.24350286	     77.77146241	     43.00799814	      0.00000000	      0.00000000	     -1.42118366	     -8.57754611	    -12.74245185	     32.87883143	     44.08125705	      0.00000000	      0.00000000
     37.59714286	     -4.96217361	     -3.87147356	      8.43806922	      0.88458991	      0.92721398	      0.48922486	      8.36871001	      2.74311366	    -15.00651886	     15.96500434	     15.96500434	     14.14692034	     -3.13812638	     -4.64545461	     32.37627489	     -5.36230444	      1.79523589	     17.67782190	     17.67782190	      9.53859590	     -4.88189960	      8.04624305	     -9.60997659	      4.30225908	      1.72233096	     33.24795236	    -17.91350626	      1.50717948	     78.51153798	     42.99921922	      0.00000000	      0.00000000	     -1.61974797	     -8.56138563	    -12.80529654	     32.69852444	     44.10844975	      0.00000000	      0.00000000
